<?xml version="1.0" encoding="UTF-8" standalone="no"?>
<!DOCTYPE svg PUBLIC "-//W3C//DTD SVG 1.1//EN"
 "http://www.w3.org/Graphics/SVG/1.1/DTD/svg11.dtd">
<!-- Generated by graphviz version 2.40.1 (20161225.0304)
 -->
<!-- Title: dependencies Pages: 1 -->
<svg width="904pt" height="211pt"
 viewBox="0.00 0.00 904.00 211.00" xmlns="http://www.w3.org/2000/svg" xmlns:xlink="http://www.w3.org/1999/xlink">
<g id="graph0" class="graph" transform="scale(1 1) rotate(0) translate(4 207)">
<title>dependencies</title>
<polygon fill="#ffffff" stroke="transparent" points="-4,4 -4,-207 900,-207 900,4 -4,4"/>
<text text-anchor="start" x="427.0091" y="-42.4" font-family="sans-serif" font-weight="bold" font-size="14.00" fill="#000000">Legend</text>
<polygon fill="#ffffb3" stroke="transparent" points="214,-10 214,-30 234,-30 234,-10 214,-10"/>
<text text-anchor="start" x="237.629" y="-15.4" font-family="sans-serif" font-size="14.00" fill="#000000"> &#160;Declarations</text>
<polygon fill="#8dd3c7" stroke="transparent" points="327,-10 327,-30 347,-30 347,-10 327,-10"/>
<text text-anchor="start" x="350.7251" y="-15.4" font-family="sans-serif" font-size="14.00" fill="#000000"> &#160;Module</text>
<polygon fill="#80b1d3" stroke="transparent" points="413,-10 413,-30 433,-30 433,-10 413,-10"/>
<text text-anchor="start" x="436.7812" y="-15.4" font-family="sans-serif" font-size="14.00" fill="#000000"> &#160;Bootstrap</text>
<polygon fill="#fdb462" stroke="transparent" points="510,-10 510,-30 530,-30 530,-10 510,-10"/>
<text text-anchor="start" x="533.6732" y="-15.4" font-family="sans-serif" font-size="14.00" fill="#000000"> &#160;Providers</text>
<polygon fill="#fb8072" stroke="transparent" points="606,-10 606,-30 626,-30 626,-10 606,-10"/>
<text text-anchor="start" x="629.7258" y="-15.4" font-family="sans-serif" font-size="14.00" fill="#000000"> &#160;Exports</text>
<g id="clust1" class="cluster">
<title>cluster_AdminModule</title>
<polygon fill="none" stroke="#000000" stroke-dasharray="1,5" points="8,-70 8,-195 888,-195 888,-70 8,-70"/>
</g>
<g id="clust2" class="cluster">
<title>cluster_AdminModule_declarations</title>
<polygon fill="none" stroke="#000000" points="332,-78 332,-130 880,-130 880,-78 332,-78"/>
</g>
<g id="clust7" class="cluster">
<title>cluster_AdminModule_imports</title>
<polygon fill="none" stroke="#000000" points="164,-78 164,-130 324,-130 324,-78 164,-78"/>
</g>
<g id="clust10" class="cluster">
<title>cluster_AdminModule_providers</title>
<polygon fill="none" stroke="#000000" points="16,-78 16,-130 156,-130 156,-78 16,-78"/>
</g>
<!-- AdminComponent -->
<g id="node1" class="node">
<title>AdminComponent</title>
<polygon fill="#ffffb3" stroke="#000000" points="872.2204,-122 751.7796,-122 751.7796,-86 872.2204,-86 872.2204,-122"/>
<text text-anchor="middle" x="812" y="-99.8" font-family="Times,serif" font-size="14.00" fill="#000000">AdminComponent</text>
</g>
<!-- AdminModule -->
<g id="node5" class="node">
<title>AdminModule</title>
<polygon fill="#8dd3c7" stroke="#000000" points="511.4386,-187 508.4386,-191 487.4386,-191 484.4386,-187 412.5614,-187 412.5614,-151 511.4386,-151 511.4386,-187"/>
<text text-anchor="middle" x="462" y="-164.8" font-family="Times,serif" font-size="14.00" fill="#000000">AdminModule</text>
</g>
<!-- AdminComponent&#45;&gt;AdminModule -->
<g id="edge1" class="edge">
<title>AdminComponent&#45;&gt;AdminModule</title>
<path fill="none" stroke="#000000" d="M812,-122.2843C812,-143.3211 812,-175 812,-175 812,-175 521.4041,-175 521.4041,-175"/>
<polygon fill="#000000" stroke="#000000" points="521.4042,-171.5001 511.4041,-175 521.4041,-178.5001 521.4042,-171.5001"/>
</g>
<!-- MenuComponent -->
<g id="node2" class="node">
<title>MenuComponent</title>
<polygon fill="#ffffb3" stroke="#000000" points="733.9916,-122 620.0084,-122 620.0084,-86 733.9916,-86 733.9916,-122"/>
<text text-anchor="middle" x="677" y="-99.8" font-family="Times,serif" font-size="14.00" fill="#000000">MenuComponent</text>
</g>
<!-- MenuComponent&#45;&gt;AdminModule -->
<g id="edge2" class="edge">
<title>MenuComponent&#45;&gt;AdminModule</title>
<path fill="none" stroke="#000000" d="M677,-122.0225C677,-139.3734 677,-163 677,-163 677,-163 521.3253,-163 521.3253,-163"/>
<polygon fill="#000000" stroke="#000000" points="521.3254,-159.5001 511.3253,-163 521.3253,-166.5001 521.3254,-159.5001"/>
</g>
<!-- MenuItemComponent -->
<g id="node3" class="node">
<title>MenuItemComponent</title>
<polygon fill="#ffffb3" stroke="#000000" points="601.6484,-122 462.3516,-122 462.3516,-86 601.6484,-86 601.6484,-122"/>
<text text-anchor="middle" x="532" y="-99.8" font-family="Times,serif" font-size="14.00" fill="#000000">MenuItemComponent</text>
</g>
<!-- MenuItemComponent&#45;&gt;AdminModule -->
<g id="edge3" class="edge">
<title>MenuItemComponent&#45;&gt;AdminModule</title>
<path fill="none" stroke="#000000" d="M486.6974,-122.1061C486.6974,-122.1061 486.6974,-140.991 486.6974,-140.991"/>
<polygon fill="#000000" stroke="#000000" points="483.1975,-140.9909 486.6974,-150.991 490.1975,-140.991 483.1975,-140.9909"/>
</g>
<!-- AdminPageTop -->
<g id="node4" class="node">
<title>AdminPageTop</title>
<polygon fill="#ffffb3" stroke="#000000" points="444.1528,-122 339.8472,-122 339.8472,-86 444.1528,-86 444.1528,-122"/>
<text text-anchor="middle" x="392" y="-99.8" font-family="Times,serif" font-size="14.00" fill="#000000">AdminPageTop</text>
</g>
<!-- AdminPageTop&#45;&gt;AdminModule -->
<g id="edge4" class="edge">
<title>AdminPageTop&#45;&gt;AdminModule</title>
<path fill="none" stroke="#000000" d="M428.5537,-122.1061C428.5537,-122.1061 428.5537,-140.991 428.5537,-140.991"/>
<polygon fill="#000000" stroke="#000000" points="425.0537,-140.9909 428.5537,-150.991 432.0537,-140.991 425.0537,-140.9909"/>
</g>
<!-- AdminRoutingModule -->
<g id="node6" class="node">
<title>AdminRoutingModule</title>
<polygon fill="#8dd3c7" stroke="#000000" points="315.5561,-122 312.5561,-126 291.5561,-126 288.5561,-122 172.4439,-122 172.4439,-86 315.5561,-86 315.5561,-122"/>
<text text-anchor="middle" x="244" y="-99.8" font-family="Times,serif" font-size="14.00" fill="#000000">AdminRoutingModule</text>
</g>
<!-- AdminRoutingModule&#45;&gt;AdminModule -->
<g id="edge5" class="edge">
<title>AdminRoutingModule&#45;&gt;AdminModule</title>
<path fill="none" stroke="#000000" d="M244,-122.0225C244,-139.3734 244,-163 244,-163 244,-163 402.5324,-163 402.5324,-163"/>
<polygon fill="#000000" stroke="#000000" points="402.5325,-166.5001 412.5324,-163 402.5324,-159.5001 402.5325,-166.5001"/>
</g>
<!-- AdminGuard -->
<g id="node7" class="node">
<title>AdminGuard</title>
<ellipse fill="#fdb462" stroke="#000000" cx="86" cy="-104" rx="61.9808" ry="18"/>
<text text-anchor="middle" x="86" y="-99.8" font-family="Times,serif" font-size="14.00" fill="#000000">AdminGuard</text>
</g>
<!-- AdminGuard&#45;&gt;AdminModule -->
<g id="edge6" class="edge">
<title>AdminGuard&#45;&gt;AdminModule</title>
<path fill="none" stroke="#000000" d="M86,-122.2843C86,-143.3211 86,-175 86,-175 86,-175 402.4579,-175 402.4579,-175"/>
<polygon fill="#000000" stroke="#000000" points="402.458,-178.5001 412.4579,-175 402.4579,-171.5001 402.458,-178.5001"/>
</g>
</g>
</svg>
