<?xml version="1.0" encoding="UTF-8" standalone="no"?>
<!DOCTYPE svg PUBLIC "-//W3C//DTD SVG 1.1//EN"
 "http://www.w3.org/Graphics/SVG/1.1/DTD/svg11.dtd">
<!-- Generated by graphviz version 2.40.1 (20161225.0304)
 -->
<!-- Title: dependencies Pages: 1 -->
<svg width="1281pt" height="211pt"
 viewBox="0.00 0.00 1281.00 211.00" xmlns="http://www.w3.org/2000/svg" xmlns:xlink="http://www.w3.org/1999/xlink">
<g id="graph0" class="graph" transform="scale(1 1) rotate(0) translate(4 207)">
<title>dependencies</title>
<polygon fill="#ffffff" stroke="transparent" points="-4,4 -4,-207 1277,-207 1277,4 -4,4"/>
<text text-anchor="start" x="615.5091" y="-42.4" font-family="sans-serif" font-weight="bold" font-size="14.00" fill="#000000">Legend</text>
<polygon fill="#ffffb3" stroke="transparent" points="402.5,-10 402.5,-30 422.5,-30 422.5,-10 402.5,-10"/>
<text text-anchor="start" x="426.129" y="-15.4" font-family="sans-serif" font-size="14.00" fill="#000000"> &#160;Declarations</text>
<polygon fill="#8dd3c7" stroke="transparent" points="515.5,-10 515.5,-30 535.5,-30 535.5,-10 515.5,-10"/>
<text text-anchor="start" x="539.2251" y="-15.4" font-family="sans-serif" font-size="14.00" fill="#000000"> &#160;Module</text>
<polygon fill="#80b1d3" stroke="transparent" points="601.5,-10 601.5,-30 621.5,-30 621.5,-10 601.5,-10"/>
<text text-anchor="start" x="625.2812" y="-15.4" font-family="sans-serif" font-size="14.00" fill="#000000"> &#160;Bootstrap</text>
<polygon fill="#fdb462" stroke="transparent" points="698.5,-10 698.5,-30 718.5,-30 718.5,-10 698.5,-10"/>
<text text-anchor="start" x="722.1732" y="-15.4" font-family="sans-serif" font-size="14.00" fill="#000000"> &#160;Providers</text>
<polygon fill="#fb8072" stroke="transparent" points="794.5,-10 794.5,-30 814.5,-30 814.5,-10 794.5,-10"/>
<text text-anchor="start" x="818.2258" y="-15.4" font-family="sans-serif" font-size="14.00" fill="#000000"> &#160;Exports</text>
<g id="clust1" class="cluster">
<title>cluster_UserModule</title>
<polygon fill="none" stroke="#000000" stroke-dasharray="1,5" points="8,-70 8,-195 1265,-195 1265,-70 8,-70"/>
</g>
<g id="clust2" class="cluster">
<title>cluster_UserModule_declarations</title>
<polygon fill="none" stroke="#000000" points="417,-78 417,-130 1257,-130 1257,-78 417,-78"/>
</g>
<g id="clust8" class="cluster">
<title>cluster_UserModule_imports</title>
<polygon fill="none" stroke="#000000" points="16,-78 16,-130 409,-130 409,-78 16,-78"/>
</g>
<!-- UserComponent -->
<g id="node1" class="node">
<title>UserComponent</title>
<polygon fill="#ffffb3" stroke="#000000" points="1248.7591,-122 1141.2409,-122 1141.2409,-86 1248.7591,-86 1248.7591,-122"/>
<text text-anchor="middle" x="1195" y="-99.8" font-family="Times,serif" font-size="14.00" fill="#000000">UserComponent</text>
</g>
<!-- UserModule -->
<g id="node6" class="node">
<title>UserModule</title>
<polygon fill="#8dd3c7" stroke="#000000" points="649.9762,-187 646.9762,-191 625.9762,-191 622.9762,-187 564.0238,-187 564.0238,-151 649.9762,-151 649.9762,-187"/>
<text text-anchor="middle" x="607" y="-164.8" font-family="Times,serif" font-size="14.00" fill="#000000">UserModule</text>
</g>
<!-- UserComponent&#45;&gt;UserModule -->
<g id="edge1" class="edge">
<title>UserComponent&#45;&gt;UserModule</title>
<path fill="none" stroke="#000000" d="M1195,-122.2921C1195,-144.2057 1195,-178 1195,-178 1195,-178 660.237,-178 660.237,-178"/>
<polygon fill="#000000" stroke="#000000" points="660.2371,-174.5001 650.237,-178 660.237,-181.5001 660.2371,-174.5001"/>
</g>
<!-- UserListComponent -->
<g id="node2" class="node">
<title>UserListComponent</title>
<polygon fill="#ffffb3" stroke="#000000" points="1122.538,-122 993.462,-122 993.462,-86 1122.538,-86 1122.538,-122"/>
<text text-anchor="middle" x="1058" y="-99.8" font-family="Times,serif" font-size="14.00" fill="#000000">UserListComponent</text>
</g>
<!-- UserListComponent&#45;&gt;UserModule -->
<g id="edge2" class="edge">
<title>UserListComponent&#45;&gt;UserModule</title>
<path fill="none" stroke="#000000" d="M1058,-122.1061C1058,-141.3391 1058,-169 1058,-169 1058,-169 660.2438,-169 660.2438,-169"/>
<polygon fill="#000000" stroke="#000000" points="660.2438,-165.5001 650.2438,-169 660.2437,-172.5001 660.2438,-165.5001"/>
</g>
<!-- UserAddDialogComponent -->
<g id="node3" class="node">
<title>UserAddDialogComponent</title>
<polygon fill="#ffffb3" stroke="#000000" points="974.9678,-122 805.0322,-122 805.0322,-86 974.9678,-86 974.9678,-122"/>
<text text-anchor="middle" x="890" y="-99.8" font-family="Times,serif" font-size="14.00" fill="#000000">UserAddDialogComponent</text>
</g>
<!-- UserAddDialogComponent&#45;&gt;UserModule -->
<g id="edge3" class="edge">
<title>UserAddDialogComponent&#45;&gt;UserModule</title>
<path fill="none" stroke="#000000" d="M890,-122.027C890,-138.3976 890,-160 890,-160 890,-160 659.9816,-160 659.9816,-160"/>
<polygon fill="#000000" stroke="#000000" points="659.9816,-156.5001 649.9816,-160 659.9816,-163.5001 659.9816,-156.5001"/>
</g>
<!-- UserEditDialogComponent -->
<g id="node4" class="node">
<title>UserEditDialogComponent</title>
<polygon fill="#ffffb3" stroke="#000000" points="786.6951,-122 617.3049,-122 617.3049,-86 786.6951,-86 786.6951,-122"/>
<text text-anchor="middle" x="702" y="-99.8" font-family="Times,serif" font-size="14.00" fill="#000000">UserEditDialogComponent</text>
</g>
<!-- UserEditDialogComponent&#45;&gt;UserModule -->
<g id="edge4" class="edge">
<title>UserEditDialogComponent&#45;&gt;UserModule</title>
<path fill="none" stroke="#000000" d="M633.6953,-122.1061C633.6953,-122.1061 633.6953,-140.991 633.6953,-140.991"/>
<polygon fill="#000000" stroke="#000000" points="630.1954,-140.9909 633.6953,-150.991 637.1954,-140.991 630.1954,-140.9909"/>
</g>
<!-- UserAuthDialogComponent -->
<g id="node5" class="node">
<title>UserAuthDialogComponent</title>
<polygon fill="#ffffb3" stroke="#000000" points="598.8585,-122 425.1415,-122 425.1415,-86 598.8585,-86 598.8585,-122"/>
<text text-anchor="middle" x="512" y="-99.8" font-family="Times,serif" font-size="14.00" fill="#000000">UserAuthDialogComponent</text>
</g>
<!-- UserAuthDialogComponent&#45;&gt;UserModule -->
<g id="edge5" class="edge">
<title>UserAuthDialogComponent&#45;&gt;UserModule</title>
<path fill="none" stroke="#000000" d="M581.4706,-122.1061C581.4706,-122.1061 581.4706,-140.991 581.4706,-140.991"/>
<polygon fill="#000000" stroke="#000000" points="577.9706,-140.9909 581.4706,-150.991 584.9706,-140.991 577.9706,-140.9909"/>
</g>
<!-- DialogModule -->
<g id="node7" class="node">
<title>DialogModule</title>
<polygon fill="#8dd3c7" stroke="#000000" points="400.6528,-122 397.6528,-126 376.6528,-126 373.6528,-122 303.3472,-122 303.3472,-86 400.6528,-86 400.6528,-122"/>
<text text-anchor="middle" x="352" y="-99.8" font-family="Times,serif" font-size="14.00" fill="#000000">DialogModule</text>
</g>
<!-- DialogModule&#45;&gt;UserModule -->
<g id="edge6" class="edge">
<title>DialogModule&#45;&gt;UserModule</title>
<path fill="none" stroke="#000000" d="M352,-122.027C352,-138.3976 352,-160 352,-160 352,-160 553.7427,-160 553.7427,-160"/>
<polygon fill="#000000" stroke="#000000" points="553.7428,-163.5001 563.7427,-160 553.7427,-156.5001 553.7428,-163.5001"/>
</g>
<!-- DirectiveModule -->
<g id="node8" class="node">
<title>DirectiveModule</title>
<polygon fill="#8dd3c7" stroke="#000000" points="284.6332,-122 281.6332,-126 260.6332,-126 257.6332,-122 173.3668,-122 173.3668,-86 284.6332,-86 284.6332,-122"/>
<text text-anchor="middle" x="229" y="-99.8" font-family="Times,serif" font-size="14.00" fill="#000000">DirectiveModule</text>
</g>
<!-- DirectiveModule&#45;&gt;UserModule -->
<g id="edge7" class="edge">
<title>DirectiveModule&#45;&gt;UserModule</title>
<path fill="none" stroke="#000000" d="M229,-122.1061C229,-141.3391 229,-169 229,-169 229,-169 554.0066,-169 554.0066,-169"/>
<polygon fill="#000000" stroke="#000000" points="554.0066,-172.5001 564.0066,-169 554.0066,-165.5001 554.0066,-172.5001"/>
</g>
<!-- UserRoutingModule -->
<g id="node9" class="node">
<title>UserRoutingModule</title>
<polygon fill="#8dd3c7" stroke="#000000" points="155.594,-122 152.594,-126 131.594,-126 128.594,-122 24.406,-122 24.406,-86 155.594,-86 155.594,-122"/>
<text text-anchor="middle" x="90" y="-99.8" font-family="Times,serif" font-size="14.00" fill="#000000">UserRoutingModule</text>
</g>
<!-- UserRoutingModule&#45;&gt;UserModule -->
<g id="edge8" class="edge">
<title>UserRoutingModule&#45;&gt;UserModule</title>
<path fill="none" stroke="#000000" d="M90,-122.2921C90,-144.2057 90,-178 90,-178 90,-178 553.8101,-178 553.8101,-178"/>
<polygon fill="#000000" stroke="#000000" points="553.8101,-181.5001 563.8101,-178 553.8101,-174.5001 553.8101,-181.5001"/>
</g>
</g>
</svg>
