<?xml version="1.0" encoding="UTF-8" standalone="no"?>
<!DOCTYPE svg PUBLIC "-//W3C//DTD SVG 1.1//EN"
 "http://www.w3.org/Graphics/SVG/1.1/DTD/svg11.dtd">
<!-- Generated by graphviz version 2.40.1 (20161225.0304)
 -->
<!-- Title: dependencies Pages: 1 -->
<svg width="583pt" height="211pt"
 viewBox="0.00 0.00 583.00 211.00" xmlns="http://www.w3.org/2000/svg" xmlns:xlink="http://www.w3.org/1999/xlink">
<g id="graph0" class="graph" transform="scale(1 1) rotate(0) translate(4 207)">
<title>dependencies</title>
<polygon fill="#ffffff" stroke="transparent" points="-4,4 -4,-207 579,-207 579,4 -4,4"/>
<text text-anchor="start" x="266.5091" y="-42.4" font-family="sans-serif" font-weight="bold" font-size="14.00" fill="#000000">Legend</text>
<polygon fill="#ffffb3" stroke="transparent" points="53.5,-10 53.5,-30 73.5,-30 73.5,-10 53.5,-10"/>
<text text-anchor="start" x="77.129" y="-15.4" font-family="sans-serif" font-size="14.00" fill="#000000"> &#160;Declarations</text>
<polygon fill="#8dd3c7" stroke="transparent" points="166.5,-10 166.5,-30 186.5,-30 186.5,-10 166.5,-10"/>
<text text-anchor="start" x="190.2251" y="-15.4" font-family="sans-serif" font-size="14.00" fill="#000000"> &#160;Module</text>
<polygon fill="#80b1d3" stroke="transparent" points="252.5,-10 252.5,-30 272.5,-30 272.5,-10 252.5,-10"/>
<text text-anchor="start" x="276.2812" y="-15.4" font-family="sans-serif" font-size="14.00" fill="#000000"> &#160;Bootstrap</text>
<polygon fill="#fdb462" stroke="transparent" points="349.5,-10 349.5,-30 369.5,-30 369.5,-10 349.5,-10"/>
<text text-anchor="start" x="373.1732" y="-15.4" font-family="sans-serif" font-size="14.00" fill="#000000"> &#160;Providers</text>
<polygon fill="#fb8072" stroke="transparent" points="445.5,-10 445.5,-30 465.5,-30 465.5,-10 445.5,-10"/>
<text text-anchor="start" x="469.2258" y="-15.4" font-family="sans-serif" font-size="14.00" fill="#000000"> &#160;Exports</text>
<g id="clust1" class="cluster">
<title>cluster_RoleModule</title>
<polygon fill="none" stroke="#000000" stroke-dasharray="1,5" points="8,-70 8,-195 567,-195 567,-70 8,-70"/>
</g>
<g id="clust2" class="cluster">
<title>cluster_RoleModule_declarations</title>
<polygon fill="none" stroke="#000000" points="287,-78 287,-130 559,-130 559,-78 287,-78"/>
</g>
<g id="clust5" class="cluster">
<title>cluster_RoleModule_imports</title>
<polygon fill="none" stroke="#000000" points="16,-78 16,-130 279,-130 279,-78 16,-78"/>
</g>
<!-- RoleComponent -->
<g id="node1" class="node">
<title>RoleComponent</title>
<polygon fill="#ffffb3" stroke="#000000" points="550.7744,-122 443.2256,-122 443.2256,-86 550.7744,-86 550.7744,-122"/>
<text text-anchor="middle" x="497" y="-99.8" font-family="Times,serif" font-size="14.00" fill="#000000">RoleComponent</text>
</g>
<!-- RoleModule -->
<g id="node3" class="node">
<title>RoleModule</title>
<polygon fill="#8dd3c7" stroke="#000000" points="333.9916,-187 330.9916,-191 309.9916,-191 306.9916,-187 248.0084,-187 248.0084,-151 333.9916,-151 333.9916,-187"/>
<text text-anchor="middle" x="291" y="-164.8" font-family="Times,serif" font-size="14.00" fill="#000000">RoleModule</text>
</g>
<!-- RoleComponent&#45;&gt;RoleModule -->
<g id="edge1" class="edge">
<title>RoleComponent&#45;&gt;RoleModule</title>
<path fill="none" stroke="#000000" d="M497,-122.1061C497,-141.3391 497,-169 497,-169 497,-169 344.1844,-169 344.1844,-169"/>
<polygon fill="#000000" stroke="#000000" points="344.1844,-165.5001 334.1844,-169 344.1843,-172.5001 344.1844,-165.5001"/>
</g>
<!-- RoleListComponent -->
<g id="node2" class="node">
<title>RoleListComponent</title>
<polygon fill="#ffffb3" stroke="#000000" points="424.5534,-122 295.4466,-122 295.4466,-86 424.5534,-86 424.5534,-122"/>
<text text-anchor="middle" x="360" y="-99.8" font-family="Times,serif" font-size="14.00" fill="#000000">RoleListComponent</text>
</g>
<!-- RoleListComponent&#45;&gt;RoleModule -->
<g id="edge2" class="edge">
<title>RoleListComponent&#45;&gt;RoleModule</title>
<path fill="none" stroke="#000000" d="M314.6097,-122.1061C314.6097,-122.1061 314.6097,-140.991 314.6097,-140.991"/>
<polygon fill="#000000" stroke="#000000" points="311.1098,-140.9909 314.6097,-150.991 318.1098,-140.991 311.1098,-140.9909"/>
</g>
<!-- DialogModule -->
<g id="node4" class="node">
<title>DialogModule</title>
<polygon fill="#8dd3c7" stroke="#000000" points="270.6528,-122 267.6528,-126 246.6528,-126 243.6528,-122 173.3472,-122 173.3472,-86 270.6528,-86 270.6528,-122"/>
<text text-anchor="middle" x="222" y="-99.8" font-family="Times,serif" font-size="14.00" fill="#000000">DialogModule</text>
</g>
<!-- DialogModule&#45;&gt;RoleModule -->
<g id="edge3" class="edge">
<title>DialogModule&#45;&gt;RoleModule</title>
<path fill="none" stroke="#000000" d="M259.4152,-122.1061C259.4152,-122.1061 259.4152,-140.991 259.4152,-140.991"/>
<polygon fill="#000000" stroke="#000000" points="255.9152,-140.9909 259.4152,-150.991 262.9152,-140.991 255.9152,-140.9909"/>
</g>
<!-- RoleRoutingModule -->
<g id="node5" class="node">
<title>RoleRoutingModule</title>
<polygon fill="#8dd3c7" stroke="#000000" points="155.6094,-122 152.6094,-126 131.6094,-126 128.6094,-122 24.3906,-122 24.3906,-86 155.6094,-86 155.6094,-122"/>
<text text-anchor="middle" x="90" y="-99.8" font-family="Times,serif" font-size="14.00" fill="#000000">RoleRoutingModule</text>
</g>
<!-- RoleRoutingModule&#45;&gt;RoleModule -->
<g id="edge4" class="edge">
<title>RoleRoutingModule&#45;&gt;RoleModule</title>
<path fill="none" stroke="#000000" d="M90,-122.1061C90,-141.3391 90,-169 90,-169 90,-169 237.8805,-169 237.8805,-169"/>
<polygon fill="#000000" stroke="#000000" points="237.8805,-172.5001 247.8805,-169 237.8804,-165.5001 237.8805,-172.5001"/>
</g>
</g>
</svg>
