<?xml version="1.0" encoding="UTF-8" standalone="no"?>
<!DOCTYPE svg PUBLIC "-//W3C//DTD SVG 1.1//EN"
 "http://www.w3.org/Graphics/SVG/1.1/DTD/svg11.dtd">
<!-- Generated by graphviz version 2.40.1 (20161225.0304)
 -->
<!-- Title: dependencies Pages: 1 -->
<svg width="923pt" height="211pt"
 viewBox="0.00 0.00 923.00 211.00" xmlns="http://www.w3.org/2000/svg" xmlns:xlink="http://www.w3.org/1999/xlink">
<g id="graph0" class="graph" transform="scale(1 1) rotate(0) translate(4 207)">
<title>dependencies</title>
<polygon fill="#ffffff" stroke="transparent" points="-4,4 -4,-207 919,-207 919,4 -4,4"/>
<text text-anchor="start" x="436.5091" y="-42.4" font-family="sans-serif" font-weight="bold" font-size="14.00" fill="#000000">Legend</text>
<polygon fill="#ffffb3" stroke="transparent" points="223.5,-10 223.5,-30 243.5,-30 243.5,-10 223.5,-10"/>
<text text-anchor="start" x="247.129" y="-15.4" font-family="sans-serif" font-size="14.00" fill="#000000"> &#160;Declarations</text>
<polygon fill="#8dd3c7" stroke="transparent" points="336.5,-10 336.5,-30 356.5,-30 356.5,-10 336.5,-10"/>
<text text-anchor="start" x="360.2251" y="-15.4" font-family="sans-serif" font-size="14.00" fill="#000000"> &#160;Module</text>
<polygon fill="#80b1d3" stroke="transparent" points="422.5,-10 422.5,-30 442.5,-30 442.5,-10 422.5,-10"/>
<text text-anchor="start" x="446.2812" y="-15.4" font-family="sans-serif" font-size="14.00" fill="#000000"> &#160;Bootstrap</text>
<polygon fill="#fdb462" stroke="transparent" points="519.5,-10 519.5,-30 539.5,-30 539.5,-10 519.5,-10"/>
<text text-anchor="start" x="543.1732" y="-15.4" font-family="sans-serif" font-size="14.00" fill="#000000"> &#160;Providers</text>
<polygon fill="#fb8072" stroke="transparent" points="615.5,-10 615.5,-30 635.5,-30 635.5,-10 615.5,-10"/>
<text text-anchor="start" x="639.2258" y="-15.4" font-family="sans-serif" font-size="14.00" fill="#000000"> &#160;Exports</text>
<g id="clust1" class="cluster">
<title>cluster_GoodsModule</title>
<polygon fill="none" stroke="#000000" stroke-dasharray="1,5" points="8,-70 8,-195 907,-195 907,-70 8,-70"/>
</g>
<g id="clust2" class="cluster">
<title>cluster_GoodsModule_declarations</title>
<polygon fill="none" stroke="#000000" points="297,-78 297,-130 899,-130 899,-78 297,-78"/>
</g>
<g id="clust7" class="cluster">
<title>cluster_GoodsModule_imports</title>
<polygon fill="none" stroke="#000000" points="16,-78 16,-130 289,-130 289,-78 16,-78"/>
</g>
<!-- GoodsComponent -->
<g id="node1" class="node">
<title>GoodsComponent</title>
<polygon fill="#ffffb3" stroke="#000000" points="890.8837,-122 773.1163,-122 773.1163,-86 890.8837,-86 890.8837,-122"/>
<text text-anchor="middle" x="832" y="-99.8" font-family="Times,serif" font-size="14.00" fill="#000000">GoodsComponent</text>
</g>
<!-- GoodsModule -->
<g id="node5" class="node">
<title>GoodsModule</title>
<polygon fill="#8dd3c7" stroke="#000000" points="496.1011,-187 493.1011,-191 472.1011,-191 469.1011,-187 399.8989,-187 399.8989,-151 496.1011,-151 496.1011,-187"/>
<text text-anchor="middle" x="448" y="-164.8" font-family="Times,serif" font-size="14.00" fill="#000000">GoodsModule</text>
</g>
<!-- GoodsComponent&#45;&gt;GoodsModule -->
<g id="edge1" class="edge">
<title>GoodsComponent&#45;&gt;GoodsModule</title>
<path fill="none" stroke="#000000" d="M832,-122.2843C832,-143.3211 832,-175 832,-175 832,-175 506.245,-175 506.245,-175"/>
<polygon fill="#000000" stroke="#000000" points="506.2451,-171.5001 496.245,-175 506.245,-178.5001 506.2451,-171.5001"/>
</g>
<!-- GoodsListComponent -->
<g id="node2" class="node">
<title>GoodsListComponent</title>
<polygon fill="#ffffb3" stroke="#000000" points="754.6624,-122 615.3376,-122 615.3376,-86 754.6624,-86 754.6624,-122"/>
<text text-anchor="middle" x="685" y="-99.8" font-family="Times,serif" font-size="14.00" fill="#000000">GoodsListComponent</text>
</g>
<!-- GoodsListComponent&#45;&gt;GoodsModule -->
<g id="edge2" class="edge">
<title>GoodsListComponent&#45;&gt;GoodsModule</title>
<path fill="none" stroke="#000000" d="M685,-122.0225C685,-139.3734 685,-163 685,-163 685,-163 506.2462,-163 506.2462,-163"/>
<polygon fill="#000000" stroke="#000000" points="506.2462,-159.5001 496.2462,-163 506.2461,-166.5001 506.2462,-159.5001"/>
</g>
<!-- GoodsAddComponent -->
<g id="node3" class="node">
<title>GoodsAddComponent</title>
<polygon fill="#ffffb3" stroke="#000000" points="596.9902,-122 455.0098,-122 455.0098,-86 596.9902,-86 596.9902,-122"/>
<text text-anchor="middle" x="526" y="-99.8" font-family="Times,serif" font-size="14.00" fill="#000000">GoodsAddComponent</text>
</g>
<!-- GoodsAddComponent&#45;&gt;GoodsModule -->
<g id="edge3" class="edge">
<title>GoodsAddComponent&#45;&gt;GoodsModule</title>
<path fill="none" stroke="#000000" d="M475.5277,-122.1061C475.5277,-122.1061 475.5277,-140.991 475.5277,-140.991"/>
<polygon fill="#000000" stroke="#000000" points="472.0278,-140.9909 475.5277,-150.991 479.0278,-140.991 472.0278,-140.9909"/>
</g>
<!-- CategoryComponent -->
<g id="node4" class="node">
<title>CategoryComponent</title>
<polygon fill="#ffffb3" stroke="#000000" points="437.1499,-122 304.8501,-122 304.8501,-86 437.1499,-86 437.1499,-122"/>
<text text-anchor="middle" x="371" y="-99.8" font-family="Times,serif" font-size="14.00" fill="#000000">CategoryComponent</text>
</g>
<!-- CategoryComponent&#45;&gt;GoodsModule -->
<g id="edge4" class="edge">
<title>CategoryComponent&#45;&gt;GoodsModule</title>
<path fill="none" stroke="#000000" d="M418.6371,-122.1061C418.6371,-122.1061 418.6371,-140.991 418.6371,-140.991"/>
<polygon fill="#000000" stroke="#000000" points="415.1372,-140.9909 418.6371,-150.991 422.1372,-140.991 415.1372,-140.9909"/>
</g>
<!-- DialogModule -->
<g id="node6" class="node">
<title>DialogModule</title>
<polygon fill="#8dd3c7" stroke="#000000" points="280.6528,-122 277.6528,-126 256.6528,-126 253.6528,-122 183.3472,-122 183.3472,-86 280.6528,-86 280.6528,-122"/>
<text text-anchor="middle" x="232" y="-99.8" font-family="Times,serif" font-size="14.00" fill="#000000">DialogModule</text>
</g>
<!-- DialogModule&#45;&gt;GoodsModule -->
<g id="edge5" class="edge">
<title>DialogModule&#45;&gt;GoodsModule</title>
<path fill="none" stroke="#000000" d="M232,-122.0225C232,-139.3734 232,-163 232,-163 232,-163 389.7942,-163 389.7942,-163"/>
<polygon fill="#000000" stroke="#000000" points="389.7943,-166.5001 399.7942,-163 389.7942,-159.5001 389.7943,-166.5001"/>
</g>
<!-- GoodsRoutingModule -->
<g id="node7" class="node">
<title>GoodsRoutingModule</title>
<polygon fill="#8dd3c7" stroke="#000000" points="165.719,-122 162.719,-126 141.719,-126 138.719,-122 24.281,-122 24.281,-86 165.719,-86 165.719,-122"/>
<text text-anchor="middle" x="95" y="-99.8" font-family="Times,serif" font-size="14.00" fill="#000000">GoodsRoutingModule</text>
</g>
<!-- GoodsRoutingModule&#45;&gt;GoodsModule -->
<g id="edge6" class="edge">
<title>GoodsRoutingModule&#45;&gt;GoodsModule</title>
<path fill="none" stroke="#000000" d="M95,-122.2843C95,-143.3211 95,-175 95,-175 95,-175 389.657,-175 389.657,-175"/>
<polygon fill="#000000" stroke="#000000" points="389.6571,-178.5001 399.657,-175 389.657,-171.5001 389.6571,-178.5001"/>
</g>
</g>
</svg>
