<?xml version="1.0" encoding="UTF-8" standalone="no"?>
<!DOCTYPE svg PUBLIC "-//W3C//DTD SVG 1.1//EN"
 "http://www.w3.org/Graphics/SVG/1.1/DTD/svg11.dtd">
<!-- Generated by graphviz version 2.40.1 (20161225.0304)
 -->
<!-- Title: dependencies Pages: 1 -->
<svg width="508pt" height="211pt"
 viewBox="0.00 0.00 508.00 211.00" xmlns="http://www.w3.org/2000/svg" xmlns:xlink="http://www.w3.org/1999/xlink">
<g id="graph0" class="graph" transform="scale(1 1) rotate(0) translate(4 207)">
<title>dependencies</title>
<polygon fill="#ffffff" stroke="transparent" points="-4,4 -4,-207 504,-207 504,4 -4,4"/>
<text text-anchor="start" x="229.0091" y="-42.4" font-family="sans-serif" font-weight="bold" font-size="14.00" fill="#000000">Legend</text>
<polygon fill="#ffffb3" stroke="transparent" points="16,-10 16,-30 36,-30 36,-10 16,-10"/>
<text text-anchor="start" x="39.629" y="-15.4" font-family="sans-serif" font-size="14.00" fill="#000000"> &#160;Declarations</text>
<polygon fill="#8dd3c7" stroke="transparent" points="129,-10 129,-30 149,-30 149,-10 129,-10"/>
<text text-anchor="start" x="152.7251" y="-15.4" font-family="sans-serif" font-size="14.00" fill="#000000"> &#160;Module</text>
<polygon fill="#80b1d3" stroke="transparent" points="215,-10 215,-30 235,-30 235,-10 215,-10"/>
<text text-anchor="start" x="238.7812" y="-15.4" font-family="sans-serif" font-size="14.00" fill="#000000"> &#160;Bootstrap</text>
<polygon fill="#fdb462" stroke="transparent" points="312,-10 312,-30 332,-30 332,-10 312,-10"/>
<text text-anchor="start" x="335.6732" y="-15.4" font-family="sans-serif" font-size="14.00" fill="#000000"> &#160;Providers</text>
<polygon fill="#fb8072" stroke="transparent" points="408,-10 408,-30 428,-30 428,-10 408,-10"/>
<text text-anchor="start" x="431.7258" y="-15.4" font-family="sans-serif" font-size="14.00" fill="#000000"> &#160;Exports</text>
<g id="clust1" class="cluster">
<title>cluster_AppConfigModule</title>
<polygon fill="none" stroke="#000000" stroke-dasharray="1,5" points="8,-70 8,-195 492,-195 492,-70 8,-70"/>
</g>
<g id="clust2" class="cluster">
<title>cluster_AppConfigModule_declarations</title>
<polygon fill="none" stroke="#000000" points="324,-78 324,-130 484,-130 484,-78 324,-78"/>
</g>
<g id="clust4" class="cluster">
<title>cluster_AppConfigModule_imports</title>
<polygon fill="none" stroke="#000000" points="16,-78 16,-130 316,-130 316,-78 16,-78"/>
</g>
<!-- AppConfigComponent -->
<g id="node1" class="node">
<title>AppConfigComponent</title>
<polygon fill="#ffffb3" stroke="#000000" points="476.3272,-122 331.6728,-122 331.6728,-86 476.3272,-86 476.3272,-122"/>
<text text-anchor="middle" x="404" y="-99.8" font-family="Times,serif" font-size="14.00" fill="#000000">AppConfigComponent</text>
</g>
<!-- AppConfigModule -->
<g id="node2" class="node">
<title>AppConfigModule</title>
<polygon fill="#8dd3c7" stroke="#000000" points="320.045,-187 317.045,-191 296.045,-191 293.045,-187 197.955,-187 197.955,-151 320.045,-151 320.045,-187"/>
<text text-anchor="middle" x="259" y="-164.8" font-family="Times,serif" font-size="14.00" fill="#000000">AppConfigModule</text>
</g>
<!-- AppConfigComponent&#45;&gt;AppConfigModule -->
<g id="edge1" class="edge">
<title>AppConfigComponent&#45;&gt;AppConfigModule</title>
<path fill="none" stroke="#000000" d="M331.8205,-104C321.3634,-104 314.0491,-104 314.0491,-104 314.0491,-104 314.0491,-140.8939 314.0491,-140.8939"/>
<polygon fill="#000000" stroke="#000000" points="310.5492,-140.8938 314.0491,-150.8939 317.5492,-140.8939 310.5492,-140.8938"/>
</g>
<!-- DialogModule -->
<g id="node3" class="node">
<title>DialogModule</title>
<polygon fill="#8dd3c7" stroke="#000000" points="307.6528,-122 304.6528,-126 283.6528,-126 280.6528,-122 210.3472,-122 210.3472,-86 307.6528,-86 307.6528,-122"/>
<text text-anchor="middle" x="259" y="-99.8" font-family="Times,serif" font-size="14.00" fill="#000000">DialogModule</text>
</g>
<!-- DialogModule&#45;&gt;AppConfigModule -->
<g id="edge2" class="edge">
<title>DialogModule&#45;&gt;AppConfigModule</title>
<path fill="none" stroke="#000000" d="M259,-122.1061C259,-122.1061 259,-140.991 259,-140.991"/>
<polygon fill="#000000" stroke="#000000" points="255.5001,-140.9909 259,-150.991 262.5001,-140.991 255.5001,-140.9909"/>
</g>
<!-- AppConfigRoutingModule -->
<g id="node4" class="node">
<title>AppConfigRoutingModule</title>
<polygon fill="#8dd3c7" stroke="#000000" points="191.6623,-122 188.6623,-126 167.6623,-126 164.6623,-122 24.3377,-122 24.3377,-86 191.6623,-86 191.6623,-122"/>
<text text-anchor="middle" x="108" y="-99.8" font-family="Times,serif" font-size="14.00" fill="#000000">AppConfigRoutingModule</text>
</g>
<!-- AppConfigRoutingModule&#45;&gt;AppConfigModule -->
<g id="edge3" class="edge">
<title>AppConfigRoutingModule&#45;&gt;AppConfigModule</title>
<path fill="none" stroke="#000000" d="M191.7987,-104C199.1941,-104 203.9509,-104 203.9509,-104 203.9509,-104 203.9509,-140.8939 203.9509,-140.8939"/>
<polygon fill="#000000" stroke="#000000" points="200.451,-140.8938 203.9509,-150.8939 207.451,-140.8939 200.451,-140.8938"/>
</g>
</g>
</svg>
