<?xml version="1.0" encoding="UTF-8" standalone="no"?>
<!DOCTYPE svg PUBLIC "-//W3C//DTD SVG 1.1//EN"
 "http://www.w3.org/Graphics/SVG/1.1/DTD/svg11.dtd">
<!-- Generated by graphviz version 2.40.1 (20161225.0304)
 -->
<!-- Title: dependencies Pages: 1 -->
<svg width="636pt" height="211pt"
 viewBox="0.00 0.00 636.00 211.00" xmlns="http://www.w3.org/2000/svg" xmlns:xlink="http://www.w3.org/1999/xlink">
<g id="graph0" class="graph" transform="scale(1 1) rotate(0) translate(4 207)">
<title>dependencies</title>
<polygon fill="#ffffff" stroke="transparent" points="-4,4 -4,-207 632,-207 632,4 -4,4"/>
<text text-anchor="start" x="293.0091" y="-42.4" font-family="sans-serif" font-weight="bold" font-size="14.00" fill="#000000">Legend</text>
<polygon fill="#ffffb3" stroke="transparent" points="80,-10 80,-30 100,-30 100,-10 80,-10"/>
<text text-anchor="start" x="103.629" y="-15.4" font-family="sans-serif" font-size="14.00" fill="#000000"> &#160;Declarations</text>
<polygon fill="#8dd3c7" stroke="transparent" points="193,-10 193,-30 213,-30 213,-10 193,-10"/>
<text text-anchor="start" x="216.7251" y="-15.4" font-family="sans-serif" font-size="14.00" fill="#000000"> &#160;Module</text>
<polygon fill="#80b1d3" stroke="transparent" points="279,-10 279,-30 299,-30 299,-10 279,-10"/>
<text text-anchor="start" x="302.7812" y="-15.4" font-family="sans-serif" font-size="14.00" fill="#000000"> &#160;Bootstrap</text>
<polygon fill="#fdb462" stroke="transparent" points="376,-10 376,-30 396,-30 396,-10 376,-10"/>
<text text-anchor="start" x="399.6732" y="-15.4" font-family="sans-serif" font-size="14.00" fill="#000000"> &#160;Providers</text>
<polygon fill="#fb8072" stroke="transparent" points="472,-10 472,-30 492,-30 492,-10 472,-10"/>
<text text-anchor="start" x="495.7258" y="-15.4" font-family="sans-serif" font-size="14.00" fill="#000000"> &#160;Exports</text>
<g id="clust1" class="cluster">
<title>cluster_AppInitModule</title>
<polygon fill="none" stroke="#000000" stroke-dasharray="1,5" points="8,-70 8,-195 620,-195 620,-70 8,-70"/>
</g>
<g id="clust2" class="cluster">
<title>cluster_AppInitModule_declarations</title>
<polygon fill="none" stroke="#000000" points="472,-78 472,-130 612,-130 612,-78 472,-78"/>
</g>
<g id="clust4" class="cluster">
<title>cluster_AppInitModule_imports</title>
<polygon fill="none" stroke="#000000" points="170,-78 170,-130 464,-130 464,-78 170,-78"/>
</g>
<g id="clust7" class="cluster">
<title>cluster_AppInitModule_providers</title>
<polygon fill="none" stroke="#000000" points="16,-78 16,-130 162,-130 162,-78 16,-78"/>
</g>
<!-- AppInitComponent -->
<g id="node1" class="node">
<title>AppInitComponent</title>
<polygon fill="#ffffb3" stroke="#000000" points="604.3809,-122 479.6191,-122 479.6191,-86 604.3809,-86 604.3809,-122"/>
<text text-anchor="middle" x="542" y="-99.8" font-family="Times,serif" font-size="14.00" fill="#000000">AppInitComponent</text>
</g>
<!-- AppInitModule -->
<g id="node2" class="node">
<title>AppInitModule</title>
<polygon fill="#8dd3c7" stroke="#000000" points="377.5982,-187 374.5982,-191 353.5982,-191 350.5982,-187 274.4018,-187 274.4018,-151 377.5982,-151 377.5982,-187"/>
<text text-anchor="middle" x="326" y="-164.8" font-family="Times,serif" font-size="14.00" fill="#000000">AppInitModule</text>
</g>
<!-- AppInitComponent&#45;&gt;AppInitModule -->
<g id="edge1" class="edge">
<title>AppInitComponent&#45;&gt;AppInitModule</title>
<path fill="none" stroke="#000000" d="M542,-122.1061C542,-141.3391 542,-169 542,-169 542,-169 387.7374,-169 387.7374,-169"/>
<polygon fill="#000000" stroke="#000000" points="387.7374,-165.5001 377.7374,-169 387.7373,-172.5001 387.7374,-165.5001"/>
</g>
<!-- DirectiveModule -->
<g id="node3" class="node">
<title>DirectiveModule</title>
<polygon fill="#8dd3c7" stroke="#000000" points="455.6332,-122 452.6332,-126 431.6332,-126 428.6332,-122 344.3668,-122 344.3668,-86 455.6332,-86 455.6332,-122"/>
<text text-anchor="middle" x="400" y="-99.8" font-family="Times,serif" font-size="14.00" fill="#000000">DirectiveModule</text>
</g>
<!-- DirectiveModule&#45;&gt;AppInitModule -->
<g id="edge2" class="edge">
<title>DirectiveModule&#45;&gt;AppInitModule</title>
<path fill="none" stroke="#000000" d="M360.8664,-122.1061C360.8664,-122.1061 360.8664,-140.991 360.8664,-140.991"/>
<polygon fill="#000000" stroke="#000000" points="357.3665,-140.9909 360.8664,-150.991 364.3665,-140.991 357.3665,-140.9909"/>
</g>
<!-- AppInitRoutingModule -->
<g id="node4" class="node">
<title>AppInitRoutingModule</title>
<polygon fill="#8dd3c7" stroke="#000000" points="326.2162,-122 323.2162,-126 302.2162,-126 299.2162,-122 177.7838,-122 177.7838,-86 326.2162,-86 326.2162,-122"/>
<text text-anchor="middle" x="252" y="-99.8" font-family="Times,serif" font-size="14.00" fill="#000000">AppInitRoutingModule</text>
</g>
<!-- AppInitRoutingModule&#45;&gt;AppInitModule -->
<g id="edge3" class="edge">
<title>AppInitRoutingModule&#45;&gt;AppInitModule</title>
<path fill="none" stroke="#000000" d="M300.2795,-122.1061C300.2795,-122.1061 300.2795,-140.991 300.2795,-140.991"/>
<polygon fill="#000000" stroke="#000000" points="296.7795,-140.9909 300.2795,-150.991 303.7795,-140.991 296.7795,-140.9909"/>
</g>
<!-- AppInitGuard -->
<g id="node5" class="node">
<title>AppInitGuard</title>
<ellipse fill="#fdb462" stroke="#000000" cx="89" cy="-104" rx="65.4111" ry="18"/>
<text text-anchor="middle" x="89" y="-99.8" font-family="Times,serif" font-size="14.00" fill="#000000">AppInitGuard</text>
</g>
<!-- AppInitGuard&#45;&gt;AppInitModule -->
<g id="edge4" class="edge">
<title>AppInitGuard&#45;&gt;AppInitModule</title>
<path fill="none" stroke="#000000" d="M89,-122.1061C89,-141.3391 89,-169 89,-169 89,-169 264.2822,-169 264.2822,-169"/>
<polygon fill="#000000" stroke="#000000" points="264.2822,-172.5001 274.2822,-169 264.2822,-165.5001 264.2822,-172.5001"/>
</g>
</g>
</svg>
